<?xml version="1.0" encoding="utf-8"?>
<!-- Generator: Adobe Illustrator 16.0.0, SVG Export Plug-In . SVG Version: 6.00 Build 0)  -->
<!DOCTYPE svg PUBLIC "-//W3C//DTD SVG 1.1//EN" "http://www.w3.org/Graphics/SVG/1.1/DTD/svg11.dtd">
<svg version="1.1" id="Layer_1" xmlns="http://www.w3.org/2000/svg" xmlns:xlink="http://www.w3.org/1999/xlink" x="0px" y="0px"
	 width="250px" height="50px" viewBox="0 0 250 50" enable-background="new 0 0 250 50" xml:space="preserve">
<g>
	<path fill="#7BAADA" d="M47.817,27.007c0,8.149-6.301,13.946-15.123,13.946h-6.007c-2.101,0-3.655-1.555-3.655-3.654V16.883
		c0-2.1,1.554-3.655,3.655-3.655h6.007C41.642,13.228,47.817,18.857,47.817,27.007z M30.258,19.781v14.66h2.395
		c4.663,0,7.771-2.982,7.771-7.435c0-4.495-2.94-7.226-7.771-7.226H30.258z"/>
	<path fill="#7BAADA" d="M74.907,38.013c0,1.974-1.513,3.444-3.571,3.444c-1.554,0-2.73-0.882-3.403-2.604l-0.588-1.47h-9.914
		l-0.588,1.47c-0.672,1.723-1.848,2.604-3.402,2.604c-2.059,0-3.571-1.471-3.571-3.444c0-0.505,0.126-1.134,0.378-1.765
		l8.696-21.129c0.63-1.554,1.806-2.395,3.444-2.395c1.639,0,2.814,0.84,3.445,2.395l8.695,21.129
		C74.781,36.879,74.907,37.508,74.907,38.013z M59.574,31.586h5.629l-2.814-8.108L59.574,31.586z"/>
	<path fill="#7BAADA" d="M78.976,37.299v-20.92c0-1.891,1.513-3.655,3.612-3.655c2.101,0,3.613,1.554,3.613,3.655v18.063h8.611
		c1.891,0,3.276,1.387,3.276,3.277s-1.386,3.234-3.276,3.234H82.63C80.531,40.953,78.976,39.398,78.976,37.299z"/>
	<path fill="#FFFFFF" d="M105.484,39.734V14.446c0-0.924,0.673-1.68,1.639-1.68c0.924,0,1.639,0.756,1.639,1.68v10.208h15.542
		V14.446c0-0.924,0.715-1.68,1.639-1.68c0.966,0,1.638,0.756,1.638,1.68v25.288c0,0.925-0.672,1.681-1.638,1.681
		c-0.924,0-1.639-0.756-1.639-1.681v-12.14h-15.542v12.14c0,0.925-0.715,1.681-1.639,1.681
		C106.157,41.415,105.484,40.659,105.484,39.734z"/>
	<path fill="#FFFFFF" d="M154.713,30.703c0,5.924-4.748,10.67-10.754,10.67c-5.965-0.042-10.67-4.746-10.67-10.67
		c0-6.007,4.705-10.67,10.711-10.67C149.965,20.033,154.713,24.738,154.713,30.703z M136.607,30.745c0,4.369,3.15,7.646,7.352,7.646
		c4.199,0,7.436-3.318,7.436-7.646c0-4.411-3.193-7.729-7.395-7.729C139.758,23.016,136.564,26.334,136.607,30.745z"/>
	<path fill="#FFFFFF" d="M171.973,39.65c0,0.757-0.422,1.261-1.178,1.471c-0.672,0.21-1.512,0.294-2.646,0.294
		c-4.451,0-6.889-2.353-6.889-6.638V23.394h-2.1c-0.84,0-1.514-0.63-1.514-1.47c0-0.798,0.674-1.428,1.514-1.428h2.1v-4.327
		c0-0.924,0.715-1.681,1.639-1.681s1.596,0.714,1.596,1.681v4.327h5.084c0.797,0,1.469,0.63,1.469,1.428
		c0,0.84-0.672,1.47-1.469,1.47h-5.084v11.174c0,2.688,1.387,3.906,4.326,3.906c0.715,0,1.219-0.084,1.682-0.084
		C171.383,38.391,171.973,38.895,171.973,39.65z"/>
	<path fill="#FFFFFF" d="M194.275,29.484v0.211c0,1.344-0.715,2.016-1.975,2.016H177.85c0.42,4.033,3.402,6.722,7.52,6.722
		c2.018,0,3.865-0.714,5.336-1.974c0.336-0.295,0.713-0.463,1.092-0.463c0.799,0,1.428,0.588,1.428,1.428
		c0,0.547-0.209,0.925-0.799,1.471c-2.016,1.681-4.451,2.521-7.098,2.521c-6.217,0-10.838-4.579-10.838-10.67
		c0-6.007,4.621-10.712,10.459-10.712C190.369,20.033,194.275,23.982,194.275,29.484z M177.977,28.855h12.98
		c-0.084-3.445-2.521-5.881-6.092-5.881C181.379,22.974,178.689,25.368,177.977,28.855z"/>
	<path fill="#FFFFFF" d="M199.941,39.734V10.666c0-0.924,0.674-1.68,1.639-1.68c0.924,0,1.598,0.756,1.598,1.68v29.069
		c0,0.925-0.674,1.681-1.598,1.681C200.615,41.415,199.941,40.659,199.941,39.734z"/>
	<path fill="#FFFFFF" d="M208.803,37.971c-0.293-0.336-0.42-0.631-0.42-1.051c0-0.84,0.715-1.512,1.555-1.512
		c0.377,0,0.799,0.168,1.135,0.462c1.428,1.47,3.023,2.563,5.209,2.563c2.141,0,3.906-1.05,3.906-2.898
		c0-1.765-1.514-2.437-3.57-3.276l-1.975-0.84c-3.109-1.303-5.084-2.73-5.084-5.671c0-3.697,3.15-5.713,6.891-5.713
		c2.771,0,4.998,1.134,6.469,2.815c0.293,0.336,0.42,0.672,0.42,1.05c0,0.756-0.631,1.428-1.428,1.428
		c-0.379,0-0.674-0.168-1.219-0.63c-1.092-0.924-2.646-1.68-4.41-1.68c-1.934,0-3.404,0.882-3.404,2.563
		c0,1.386,1.051,2.058,3.32,2.982l1.889,0.799c3.697,1.555,5.42,3.15,5.42,6.049c0,3.99-3.402,6.007-7.184,6.007
		C213.045,41.415,210.482,39.945,208.803,37.971z"/>
</g>
<g>
</g>
<g>
</g>
<g>
</g>
<g>
</g>
<g>
</g>
<g>
</g>
<g>
</g>
</svg>
