<?xml version="1.0" encoding="utf-8"?>
<!-- Generator: Adobe Illustrator 16.0.0, SVG Export Plug-In . SVG Version: 6.00 Build 0)  -->
<!DOCTYPE svg PUBLIC "-//W3C//DTD SVG 1.1//EN" "http://www.w3.org/Graphics/SVG/1.1/DTD/svg11.dtd">
<svg version="1.1" id="Layer_1" xmlns="http://www.w3.org/2000/svg" xmlns:xlink="http://www.w3.org/1999/xlink" x="0px" y="0px"
	 width="250px" height="50px" viewBox="0 0 250 50" enable-background="new 0 0 250 50" xml:space="preserve">
<g>
	<g>
		<g>
			<path fill="#FFFFFF" stroke="#FFFFFF" stroke-width="2" stroke-miterlimit="10" d="M46,47.369l-0.75-2.998
				c-0.076-0.301-0.347-0.514-0.658-0.514h-0.82v-2.319c0-0.375-0.304-0.676-0.679-0.676h-9.812v-1.646h9.813
				c0.374,0,0.678-0.304,0.678-0.68v-2.994c0-0.376-0.304-0.68-0.678-0.68h-0.821v-0.816c0-7.899-5.877-14.451-13.487-15.514v-1.792
				h2.318c0.375,0,0.678-0.304,0.678-0.679c0-0.375-0.304-0.678-0.678-0.678h-8.992c-0.375,0-0.678,0.303-0.678,0.678
				c0,0.375,0.304,0.679,0.678,0.679h2.319v1.792c-7.611,1.063-13.488,7.614-13.488,15.514v0.816h-0.821
				c-0.375,0-0.678,0.304-0.678,0.68v2.994c0,0.376,0.304,0.68,0.678,0.68h9.813v1.646h-9.813c-0.375,0-0.678,0.301-0.678,0.676
				v2.319H8.624c-0.257,0-0.492,0.146-0.606,0.375l-1.499,2.999c-0.105,0.209-0.095,0.461,0.03,0.659
				c0.124,0.202,0.341,0.323,0.577,0.323h38.217c0.208,0,0.406-0.097,0.536-0.263C46.006,47.789,46.052,47.573,46,47.369z
				 M25.789,16.741h1.641v1.662c-0.272-0.015-0.546-0.022-0.821-0.022s-0.549,0.007-0.82,0.022V16.741z M10.801,37.861v-1.643h0.748
				c0.023,0.003,0.047,0.005,0.072,0.005c0.024,0,0.048-0.002,0.072-0.005h3.287c0.374,0,0.679-0.304,0.679-0.676
				c0-0.376-0.305-0.68-0.679-0.68H12.3v-0.816c0-7.89,6.418-14.309,14.308-14.309c7.89,0,14.308,6.419,14.308,14.309v0.816H17.691
				c-0.375,0-0.679,0.304-0.679,0.68c0,0.372,0.304,0.676,0.679,0.676h23.833c0.023,0.003,0.047,0.005,0.07,0.005
				c0.026,0,0.05-0.002,0.073-0.005h0.748v1.643H10.801z M31.924,39.217v1.646H21.292v-1.646H31.924z M10.801,42.218h9.809
				c0.001,0,0.002,0,0.003,0c0.001,0,0.003,0,0.003,0H32.6c0,0,0.002,0,0.002,0c0.002,0,0.003,0,0.003,0h9.81v1.64H10.801V42.218z
				 M8.223,46.855l0.82-1.64h35.02l0.411,1.64H8.223z"/>
		</g>
	</g>
	<g>
		<g>
			<path fill="#FFFFFF" stroke="#FFFFFF" stroke-width="2" stroke-miterlimit="10" d="M26.608,1.896
				c-0.375,0-0.678,0.304-0.678,0.678v2.998c0,0.375,0.303,0.679,0.678,0.679s0.678-0.304,0.678-0.679V2.574
				C27.287,2.199,26.983,1.896,26.608,1.896z"/>
		</g>
	</g>
	<g>
		<g>
			<path fill="#FFFFFF" stroke="#FFFFFF" stroke-width="2" stroke-miterlimit="10" d="M17.455,7.842l-1.499-2.596
				c-0.187-0.325-0.603-0.436-0.926-0.249c-0.325,0.188-0.437,0.603-0.249,0.927l1.499,2.596c0.125,0.217,0.353,0.34,0.588,0.34
				c0.115,0,0.231-0.03,0.338-0.091C17.53,8.582,17.642,8.167,17.455,7.842z"/>
		</g>
	</g>
	<g>
		<g>
			<path fill="#FFFFFF" stroke="#FFFFFF" stroke-width="2" stroke-miterlimit="10" d="M10.074,14.725l-2.595-1.498
				c-0.325-0.188-0.74-0.077-0.927,0.249c-0.187,0.324-0.077,0.739,0.249,0.926l2.595,1.499c0.107,0.061,0.224,0.091,0.339,0.091
				c0.234,0,0.462-0.121,0.588-0.339C10.51,15.328,10.399,14.913,10.074,14.725z"/>
		</g>
	</g>
	<g>
		<g>
			<path fill="#FFFFFF" stroke="#FFFFFF" stroke-width="2" stroke-miterlimit="10" d="M7.125,24.376H4.127
				c-0.375,0-0.678,0.303-0.678,0.678c0,0.375,0.304,0.679,0.678,0.679h2.998c0.375,0,0.679-0.303,0.679-0.679
				C7.804,24.68,7.5,24.376,7.125,24.376z"/>
		</g>
	</g>
	<g>
		<g>
			<path fill="#FFFFFF" stroke="#FFFFFF" stroke-width="2" stroke-miterlimit="10" d="M49.088,24.376h-2.997
				c-0.375,0-0.679,0.303-0.679,0.678c0,0.375,0.304,0.679,0.679,0.679h2.997c0.375,0,0.679-0.303,0.679-0.679
				C49.768,24.68,49.464,24.376,49.088,24.376z"/>
		</g>
	</g>
	<g>
		<g>
			<path fill="#FFFFFF" stroke="#FFFFFF" stroke-width="2" stroke-miterlimit="10" d="M46.665,13.476
				c-0.188-0.325-0.602-0.437-0.926-0.249l-2.597,1.498c-0.324,0.188-0.436,0.604-0.248,0.928c0.125,0.218,0.353,0.339,0.588,0.339
				c0.116,0,0.232-0.03,0.339-0.091l2.597-1.499C46.74,14.215,46.852,13.799,46.665,13.476z"/>
		</g>
	</g>
	<g>
		<g>
			<path fill="#FFFFFF" stroke="#FFFFFF" stroke-width="2" stroke-miterlimit="10" d="M38.188,4.998
				c-0.324-0.187-0.74-0.076-0.926,0.249l-1.499,2.596c-0.187,0.324-0.077,0.74,0.25,0.927c0.107,0.062,0.222,0.091,0.338,0.091
				c0.235,0,0.462-0.123,0.588-0.34l1.499-2.596C38.624,5.601,38.512,5.186,38.188,4.998z"/>
		</g>
	</g>
	<g>
	</g>
	<g>
	</g>
	<g>
	</g>
	<g>
	</g>
	<g>
	</g>
	<g>
	</g>
	<g>
	</g>
	<g>
	</g>
	<g>
	</g>
	<g>
	</g>
	<g>
	</g>
	<g>
	</g>
	<g>
	</g>
	<g>
	</g>
	<g>
	</g>
</g>
<g>
	<path fill="#FFFFFF" d="M78.954,29.213c0,8.275-6.175,13.904-15.123,13.904h-6.343c-1.344,0-2.31-0.967-2.31-2.311V17.702
		c0-1.344,0.966-2.311,2.31-2.311h6.343C72.905,15.392,78.954,20.895,78.954,29.213z M59.63,19.424v19.702h4.159
		c6.343,0,10.544-3.948,10.544-9.913c0-6.008-4.075-9.789-10.544-9.789H59.63z"/>
	<path fill="#FFFFFF" d="M100.33,30.641v10.712c0,1.302-0.924,2.226-2.185,2.226s-2.185-0.965-2.185-2.226V41.1
		c-1.512,1.598-3.696,2.479-6.343,2.479c-4.285,0-7.184-2.394-7.184-5.965c0-3.612,2.94-5.881,7.604-5.881h5.839v-1.344
		c0-2.814-1.596-4.411-4.411-4.411c-1.722,0-3.276,0.63-4.579,1.933c-0.546,0.462-1.008,0.672-1.513,0.672
		c-1.05,0-1.932-0.882-1.932-1.848c0-0.631,0.294-1.219,0.882-1.807c1.764-1.848,4.495-2.898,7.519-2.898
		C97.179,22.029,100.33,25.222,100.33,30.641z M95.877,35.303v-0.377h-5.293c-2.394,0-3.654,0.882-3.654,2.52
		c0,1.681,1.428,2.73,3.612,2.73C93.525,40.176,95.877,38.033,95.877,35.303z"/>
	<path fill="#FFFFFF" d="M106.458,41.311V13.417c0-1.302,0.924-2.269,2.227-2.269c1.26,0,2.185,0.966,2.185,2.269v27.893
		c0,1.303-0.924,2.268-2.185,2.268S106.458,42.613,106.458,41.311z"/>
	<path fill="#FFFFFF" d="M129.307,41.311V17.198c0-1.302,0.924-2.269,2.227-2.269s2.227,0.966,2.227,2.269v9.241h13.945v-9.241
		c0-1.302,0.924-2.269,2.227-2.269s2.227,0.966,2.227,2.269v24.112c0,1.303-0.967,2.268-2.227,2.268s-2.227-0.965-2.227-2.268
		v-10.88H133.76v10.88c0,1.303-0.967,2.268-2.227,2.268S129.307,42.613,129.307,41.311z"/>
	<path fill="#FFFFFF" d="M179.164,32.783c0,6.007-4.832,10.795-10.965,10.795c-6.092-0.041-10.879-4.788-10.879-10.795
		c0-6.049,4.787-10.754,10.879-10.754C174.332,22.029,179.164,26.775,179.164,32.783z M161.814,32.824c0,3.823,2.73,6.68,6.385,6.68
		s6.428-2.898,6.428-6.68c0-3.864-2.773-6.721-6.385-6.763C164.545,26.104,161.814,28.96,161.814,32.824z"/>
	<path fill="#FFFFFF" d="M196.887,41.311c0,0.924-0.463,1.555-1.303,1.848c-0.715,0.295-1.596,0.42-2.773,0.42
		c-4.914,0-7.602-2.52-7.602-7.183V26.314h-1.639c-1.092,0-1.975-0.799-1.975-1.891s0.883-1.932,1.975-1.932h1.639v-3.613
		c0-1.26,0.965-2.269,2.225-2.269c1.262,0,2.227,0.966,2.227,2.269v3.613h4.412c1.133,0,1.975,0.84,1.975,1.932
		s-0.842,1.891-1.975,1.891h-4.412v9.703c0,2.521,1.219,3.57,4.033,3.57c0.504,0,0.883-0.042,1.26-0.042
		C196.131,39.546,196.887,40.26,196.887,41.311z"/>
	<path fill="#FFFFFF" d="M219.398,31.606v0.21c0,1.513-0.965,2.437-2.52,2.437h-13.191c0.59,3.319,3.068,5.419,6.723,5.419
		c1.764,0,3.443-0.546,4.83-1.596c0.379-0.252,0.756-0.42,1.135-0.42c1.049,0,1.848,0.798,1.848,1.848
		c0,0.756-0.293,1.26-1.092,1.849c-1.975,1.47-4.285,2.226-6.848,2.226c-6.385,0-11.09-4.578-11.09-10.754
		c0-6.09,4.621-10.795,10.629-10.795C215.324,22.029,219.398,26.062,219.398,31.606z M203.771,30.809h11.217
		c-0.084-2.982-2.184-5.041-5.293-5.041C206.713,25.768,204.445,27.784,203.771,30.809z"/>
	<path fill="#FFFFFF" d="M224.436,41.311V13.417c0-1.302,0.924-2.269,2.227-2.269c1.26,0,2.184,0.966,2.184,2.269v27.893
		c0,1.303-0.924,2.268-2.184,2.268S224.436,42.613,224.436,41.311z"/>
	<path fill="#FFFFFF" d="M234.053,40.387c-0.42-0.379-0.629-0.841-0.629-1.429c0-1.05,0.881-1.933,1.973-1.933
		c0.463,0,0.926,0.168,1.387,0.588c1.303,1.219,2.857,2.143,4.832,2.143c1.805,0,3.318-0.756,3.318-2.311
		c0-1.344-1.219-1.891-2.898-2.563l-2.102-0.882c-3.318-1.386-5.377-2.898-5.377-6.007c0-3.823,3.193-5.965,7.268-5.965
		c2.646,0,4.957,0.966,6.553,2.521c0.463,0.42,0.672,0.924,0.672,1.47c0,1.051-0.84,1.891-1.848,1.891
		c-0.463,0-0.84-0.21-1.387-0.631c-1.092-0.84-2.52-1.428-4.074-1.428c-1.639,0-2.814,0.631-2.814,1.975
		c0,1.134,0.84,1.68,2.73,2.436l1.975,0.799c3.738,1.555,5.629,3.192,5.629,6.217c0,4.159-3.529,6.301-7.645,6.301
		C238.422,43.578,235.816,42.276,234.053,40.387z"/>
</g>
<g>
</g>
<g>
</g>
<g>
</g>
<g>
</g>
<g>
</g>
<g>
</g>
</svg>
